Coordinates
version=1
nRows=17
nColumns=24
inDegrees=yes

Units are S.I. units (second, meters, Newtons, ...)
Angles are in degrees.

endheader
time	pelvis_tilt	pelvis_list	pelvis_rotation	pelvis_tx	pelvis_ty	pelvis_tz	hip_flexion_r	hip_adduction_r	hip_rotation_r	knee_angle_r	ankle_angle_r	subtalar_angle_r	mtp_angle_r	hip_flexion_l	hip_adduction_l	hip_rotation_l	knee_angle_l	ankle_angle_l	subtalar_angle_l	mtp_angle_l	lumbar_extension	lumbar_bending	lumbar_rotation
      3.64000000	    -11.61110870	      5.35433667	     -1.27132216	      0.44880745	      0.73674121	     -0.24231551	     15.95782199	    -19.92712269	    -45.73367253	    -54.21235564	     49.69666004	     27.99258776	      0.00000000	     10.83147492	     -7.89921969	     51.39656647	     40.23938934	   -117.88539670	   -143.44793494	      0.00000000	    -13.41569482	     -1.72169151	      1.27845062
      3.64833330	    -11.69466787	      5.35306698	     -1.28865497	      0.45228665	      0.73705172	     -0.24306164	     15.89278226	    -20.01563358	    -45.55221242	    -54.38637059	     49.31336890	     27.84009372	      0.00000000	     10.60984202	     -7.85940590	     51.41000344	     40.33277072	   -117.75429985	   -143.54519919	      0.00000000	    -13.40129670	     -1.80644384	      1.23838055
      3.65666670	    -11.78384814	      5.35335690	     -1.33164368	      0.45576154	      0.73735583	     -0.24375724	     15.86785920	    -20.09700111	    -45.31968458	    -54.58369180	     48.91320195	     27.60953282	      0.00000000	     10.37396777	     -7.81703728	     51.35423963	     40.44003535	   -117.53838468	   -143.70604327	      0.00000000	    -13.37736612	     -1.90348683	      1.22485688
      3.66500000	    -11.84321366	      5.32633032	     -1.36363854	      0.45926305	      0.73771642	     -0.24445221	     15.80925636	    -20.16764350	    -45.11469660	    -54.81535176	     48.43976787	     27.43519069	      0.00000000	     10.12400546	     -7.82222897	     51.39419484	     40.53977280	   -117.47044975	   -143.78454212	      0.00000000	    -13.38864682	     -1.96624736	      1.18674072
      3.67333330	    -11.93951846	      5.28050423	     -1.41944605	      0.46270137	      0.73801311	     -0.24508562	     15.86688948	    -20.19574133	    -44.78446958	    -55.10882871	     47.93912040	     27.08399021	      0.00000000	      9.87901225	     -7.82645401	     51.27630943	     40.65924165	   -117.24223907	   -143.97885542	      0.00000000	    -13.35569872	     -2.01130376	      1.17603393
      3.68166670	    -11.96853490	      5.21993688	     -1.47065643	      0.46620880	      0.73842501	     -0.24571807	     15.84626826	    -20.24820096	    -44.51265912	    -55.45691697	     47.35086278	     26.84327399	      0.00000000	      9.59423321	     -7.86967442	     51.30448559	     40.75173872	   -117.17171659	   -144.06795573	      0.00000000	    -13.40278431	     -2.04110681	      1.14785637
      3.69000000	    -12.03565401	      5.15806159	     -1.55012638	      0.46965906	      0.73876798	     -0.24628390	     15.98604452	    -20.22425394	    -43.96727560	    -55.84629929	     46.78789087	     26.26110181	      0.00000000	      9.30352370	     -7.89062032	     51.14056146	     40.87793847	   -116.89663646	   -144.32930552	      0.00000000	    -13.40055357	     -2.07676157	      1.14281403
      3.69833330	    -12.05266741	      5.05775597	     -1.61110772	      0.47316381	      0.73918700	     -0.24685381	     16.03153634	    -20.27086631	    -43.65253013	    -56.34852091	     46.02085891	     25.96346996	      0.00000000	      8.99325495	     -7.99117657	     51.15656425	     40.99868766	   -116.85493181	   -144.40443904	      0.00000000	    -13.45548134	     -2.06637584	      1.11453795
      3.70666670	    -12.10387713	      4.96589580	     -1.70631951	      0.47659803	      0.73955139	     -0.24737176	     16.27749488	    -20.21496287	    -42.94085537	    -56.89316137	     45.29812135	     25.22096962	      0.00000000	      8.68612025	     -8.05821242	     51.00857214	     41.13198796	   -116.62376110	   -144.64044535	      0.00000000	    -13.47012713	     -2.06591909	      1.10376057
      3.71500000	    -12.11944087	      4.84708494	     -1.79427915	      0.48006384	      0.73995885	     -0.24787398	     16.50237095	    -20.19359749	    -42.30672776	    -57.55350280	     44.42039503	     24.58727005	      0.00000000	      8.35327990	     -8.17335519	     50.93749054	     41.26898135	   -116.49490546	   -144.80013028	      0.00000000	    -13.52455736	     -2.03568329	      1.08174301
      3.72333330	    -12.12489159	      4.71963679	     -1.88826040	      0.48352048	      0.74037043	     -0.24835773	     16.79404673	    -20.17180801	    -41.58353919	    -58.32179542	     43.44531699	     23.88212221	      0.00000000	      8.00982858	     -8.30256610	     50.87087683	     41.41082793	   -116.36005940	   -144.95076969	      0.00000000	    -13.58970045	     -1.99548552	      1.05597846
      3.73166670	    -12.11730139	      4.58060681	     -1.98729609	      0.48697026	      0.74078673	     -0.24882098	     17.15334494	    -20.14057979	    -40.76285043	    -59.19649274	     42.37213374	     23.09187120	      0.00000000	      7.65127939	     -8.44893070	     50.80599785	     41.55999012	   -116.21993448	   -145.09639557	      0.00000000	    -13.66889745	     -1.94065333	      1.02550751
      3.74000000	    -12.09911809	      4.43276053	     -2.09190574	      0.49040728	      0.74120077	     -0.24926563	     17.58812629	    -20.10460317	    -39.84653206	    -60.18481138	     41.19688176	     22.22889419	      0.00000000	      7.28138251	     -8.61067757	     50.74626611	     41.71611678	   -116.07731521	   -145.23477572	      0.00000000	    -13.75987166	     -1.87409458	      0.98968355
      3.74833330	    -12.07336290	      4.27900512	     -2.19999742	      0.49382443	      0.74160179	     -0.24969747	     18.10405032	    -20.06942124	    -38.84220013	    -61.29052133	     39.92268998	     21.31157672	      0.00000000	      6.90529881	     -8.78482842	     50.69500287	     41.87823601	   -115.93472429	   -145.36456716	      0.00000000	    -13.85881168	     -1.79810819	      0.94930179
      3.75666670	    -12.03320836	      4.11485259	     -2.31057913	      0.49723154	      0.74200119	     -0.25011251	     18.69207692	    -20.01373471	    -37.73836030	    -62.49307828	     38.56753756	     20.31171440	      0.00000000	      6.51072763	     -8.97408275	     50.64213411	     42.05096947	   -115.78261055	   -145.48871818	      0.00000000	    -13.97393038	     -1.70625380	      0.90126687
      3.76500000	    -11.98114445	      3.93708479	     -2.42274669	      0.50062322	      0.74238807	     -0.25050054	     19.34731016	    -19.94097661	    -36.57033629	    -63.79055181	     37.13538105	     19.26104356	      0.00000000	      6.09902430	     -9.18474220	     50.58639014	     42.23804503	   -115.62321962	   -145.60139478	      0.00000000	    -14.10325577	     -1.59767217	      0.84567799
      3.77333330	    -11.94088709	      3.78658414	     -2.54091868	      0.50395206	      0.74272166	     -0.25091676	     20.11590625	    -19.91449950	    -35.33722751	    -65.20911318	     35.64146928	     18.26960636	      0.00000000	      5.72211628	     -9.37270767	     50.57641025	     42.40918084	   -115.47992766	   -145.70541738	      0.00000000	    -14.21947690	     -1.51159597	      0.78185339
